# Blender v2.92.0 OBJ File: ''
# www.blender.org
o Cube
v 4.583065 4.583065 -4.583065
v 4.583065 -4.583065 -4.583065
v 4.583065 4.583065 4.583065
v 4.583065 -4.583065 4.583065
v -4.583065 4.583065 -4.583065
v -4.583065 -4.583065 -4.583065
v -4.583065 4.583065 4.583065
v -4.583065 -4.583065 4.583065
v -4.724839 2.119377 -1.924434
v -4.724839 4.119377 -1.924434
v -4.724839 2.119377 -4.927892
v -4.724839 4.119377 -4.927892
v -0.510545 2.119377 -1.924434
v -0.510545 4.119377 -1.924434
v -0.510545 2.119377 -4.927892
v -0.510545 4.119377 -4.927892
v 0.929979 2.287357 -1000000000.000000
v 0.929979 -1.813939 -1000000000.000000
v 0.929979 2.287357 -1000000000.000000
v 0.929979 -1.813939 -1000000000.000000
v -2.075027 2.287357 -1000000000.000000
v -2.075027 -1.813939 -1000000000.000000
v -2.075027 2.287357 -1000000000.000000
v -2.075027 -1.813939 -1000000000.000000
v -2.075027 -1.813939 -2.606019
v -2.075027 2.287357 -2.606019
v -2.075027 -1.813939 -4.755616
v -2.075027 2.287357 -4.755616
v 0.929979 -1.813939 -2.606019
v 0.929979 2.287357 -2.606019
v 0.929979 -1.813939 -4.755616
v 0.929979 2.287357 -4.755616
v 1.554732 -0.456132 -2.991419
v 1.554732 0.456132 -2.991419
v 1.554732 -0.456132 -4.991419
v 1.554732 0.456132 -4.991419
v 2.277893 -0.456132 -2.991419
v 2.277893 0.456132 -2.991419
v 2.277893 -0.456132 -4.991419
v 2.277893 0.456132 -4.991419
v -4.970438 -4.761350 1.000000
v -4.970438 4.761350 1.000000
v -4.970438 -4.761350 -1.000000
v -4.970438 4.761350 -1.000000
v 5.241612 -4.761350 1.000000
v 5.241612 4.761350 1.000000
v 5.241612 -4.761350 -1.000000
v 5.241612 4.761350 -1.000000
v -4.698652 -4.901192 4.706214
v -4.698652 1.686471 4.706214
v -4.698652 -4.901192 2.706214
v -4.698652 1.686471 2.706214
v -2.698652 -4.901192 4.706214
v -2.698652 1.686471 4.706214
v -2.698652 -4.901192 2.706214
v -2.698652 1.686471 2.706214
v -0.902262 -3.287051 5.045178
v -0.902262 3.287051 5.045178
v -0.902262 -3.287051 2.788362
v -0.902262 3.287051 2.788362
v 0.902262 -3.287051 5.045178
v 0.902262 3.287051 5.045178
v 0.902262 -3.287051 2.788362
v 0.902262 3.287051 2.788362
v -4.623223 -4.961157 -3.585820
v -4.623223 -2.961157 -3.585820
v -4.623223 -4.961157 -4.706548
v -4.623223 -2.961157 -4.706548
v 4.623223 -4.961157 -3.585820
v 4.623223 -2.961157 -3.585820
v 4.623223 -4.961157 -4.706548
v 4.623223 -2.961157 -4.706548
v -3.367563 2.490955 4.932013
v -3.367563 4.490955 4.932013
v -3.367563 2.490955 2.932013
v -3.367563 4.490955 2.932013
v 4.381327 2.490955 4.932013
v 4.381327 4.490955 4.932013
v 4.381327 2.490955 2.932013
v 4.381327 4.490955 2.932013
v 2.758912 -3.973029 4.729043
v 2.758912 -1.973029 4.729043
v 2.758912 -3.973029 2.729043
v 2.758912 -1.973029 2.729043
v 4.758912 -3.973029 4.729043
v 4.758912 -1.973029 4.729043
v 4.758912 -3.973029 2.729043
v 4.758912 -1.973029 2.729043
v 3.871231 3.084587 -2.255863
v 3.871231 4.657240 -2.255863
v 3.871231 3.084587 -3.828516
v 3.871231 4.657240 -3.828516
v 4.747533 3.084587 -2.255863
v 4.747533 4.657240 -2.255863
v 4.747533 3.084587 -3.828516
v 4.747533 4.657240 -3.828516
vt 0.875000 0.500000
vt 0.625000 0.750000
vt 0.625000 0.500000
vt 0.375000 1.000000
vt 0.375000 0.750000
vt 0.625000 0.000000
vt 0.375000 0.250000
vt 0.375000 0.000000
vt 0.375000 0.500000
vt 0.125000 0.750000
vt 0.125000 0.500000
vt 0.625000 0.250000
vt 0.625000 0.000000
vt 0.375000 0.250000
vt 0.375000 0.000000
vt 0.625000 0.250000
vt 0.375000 0.500000
vt 0.625000 0.500000
vt 0.375000 0.750000
vt 0.625000 0.750000
vt 0.375000 1.000000
vt 0.125000 0.750000
vt 0.125000 0.500000
vt 0.875000 0.500000
vt 0.625000 0.500000
vt 0.875000 0.750000
vt 0.625000 0.750000
vt 0.125000 0.500000
vt 0.375000 0.750000
vt 0.125000 0.750000
vt 0.375000 1.000000
vt 0.375000 0.500000
vt 0.625000 0.250000
vt 0.375000 0.250000
vt 0.375000 0.000000
vt 0.375000 0.250000
vt 0.625000 0.000000
vt 0.375000 0.000000
vt 0.375000 0.500000
vt 0.625000 0.250000
vt 0.375000 0.750000
vt 0.625000 0.500000
vt 0.375000 1.000000
vt 0.625000 0.750000
vt 0.125000 0.750000
vt 0.125000 0.500000
vt 0.875000 0.500000
vt 0.625000 0.000000
vt 0.375000 0.250000
vt 0.375000 0.000000
vt 0.625000 0.250000
vt 0.375000 0.500000
vt 0.625000 0.500000
vt 0.375000 0.750000
vt 0.625000 0.750000
vt 0.375000 1.000000
vt 0.125000 0.750000
vt 0.125000 0.500000
vt 0.875000 0.500000
vt 0.625000 0.000000
vt 0.375000 0.250000
vt 0.375000 0.000000
vt 0.625000 0.250000
vt 0.375000 0.500000
vt 0.625000 0.500000
vt 0.375000 0.750000
vt 0.625000 0.750000
vt 0.375000 1.000000
vt 0.125000 0.750000
vt 0.125000 0.500000
vt 0.875000 0.500000
vt 0.625000 0.000000
vt 0.375000 0.250000
vt 0.375000 0.000000
vt 0.625000 0.250000
vt 0.375000 0.500000
vt 0.625000 0.500000
vt 0.375000 0.750000
vt 0.625000 0.750000
vt 0.375000 1.000000
vt 0.125000 0.750000
vt 0.125000 0.500000
vt 0.875000 0.500000
vt 0.625000 0.000000
vt 0.375000 0.250000
vt 0.375000 0.000000
vt 0.625000 0.250000
vt 0.375000 0.500000
vt 0.625000 0.500000
vt 0.375000 0.750000
vt 0.625000 0.750000
vt 0.375000 1.000000
vt 0.125000 0.750000
vt 0.125000 0.500000
vt 0.875000 0.500000
vt 0.625000 0.000000
vt 0.375000 0.250000
vt 0.375000 0.000000
vt 0.625000 0.250000
vt 0.375000 0.500000
vt 0.625000 0.500000
vt 0.375000 0.750000
vt 0.625000 0.750000
vt 0.375000 1.000000
vt 0.125000 0.750000
vt 0.125000 0.500000
vt 0.875000 0.500000
vt 0.625000 0.000000
vt 0.375000 0.250000
vt 0.375000 0.000000
vt 0.625000 0.250000
vt 0.375000 0.500000
vt 0.625000 0.500000
vt 0.375000 0.750000
vt 0.625000 0.750000
vt 0.375000 1.000000
vt 0.125000 0.750000
vt 0.125000 0.500000
vt 0.875000 0.500000
vt 0.625000 0.000000
vt 0.375000 0.250000
vt 0.375000 0.000000
vt 0.625000 0.250000
vt 0.375000 0.500000
vt 0.625000 0.500000
vt 0.375000 0.750000
vt 0.625000 0.750000
vt 0.375000 1.000000
vt 0.125000 0.750000
vt 0.125000 0.500000
vt 0.875000 0.500000
vt 0.625000 0.000000
vt 0.375000 0.250000
vt 0.375000 0.000000
vt 0.625000 0.250000
vt 0.375000 0.500000
vt 0.625000 0.500000
vt 0.375000 0.750000
vt 0.625000 0.750000
vt 0.375000 1.000000
vt 0.125000 0.750000
vt 0.125000 0.500000
vt 0.875000 0.500000
vt 0.875000 0.750000
vt 0.625000 1.000000
vt 0.625000 1.000000
vt 0.875000 0.750000
vt 0.875000 0.500000
vt 0.625000 1.000000
vt 0.625000 0.000000
vt 0.625000 1.000000
vt 0.875000 0.750000
vt 0.625000 1.000000
vt 0.875000 0.750000
vt 0.625000 1.000000
vt 0.875000 0.750000
vt 0.625000 1.000000
vt 0.875000 0.750000
vt 0.625000 1.000000
vt 0.875000 0.750000
vt 0.625000 1.000000
vt 0.875000 0.750000
vt 0.625000 1.000000
vt 0.875000 0.750000
vt 0.625000 1.000000
vt 0.875000 0.750000
vt 0.625000 1.000000
vt 0.875000 0.750000
vn 0.0000 1.0000 0.0000
vn 0.0000 0.0000 1.0000
vn -1.0000 0.0000 0.0000
vn 0.0000 -1.0000 0.0000
vn 1.0000 0.0000 0.0000
vn 0.0000 0.0000 -1.0000
s off
f 5/1/1 3/2/1 1/3/1
f 3/2/2 8/4/2 4/5/2
f 7/6/3 6/7/3 8/8/3
f 2/9/4 8/10/4 6/11/4
f 1/3/5 4/5/5 2/9/5
f 5/12/6 2/9/6 6/7/6
f 10/13/3 11/14/3 9/15/3
f 12/16/6 15/17/6 11/14/6
f 16/18/5 13/19/5 15/17/5
f 14/20/2 9/21/2 13/19/2
f 15/17/4 9/22/4 11/23/4
f 12/24/1 14/20/1 16/18/1
f 17/25/2 23/26/2 19/27/2
f 22/28/2 20/29/2 24/30/2
f 19/27/2 24/31/2 20/29/2
f 18/32/2 19/27/2 20/29/2
f 21/33/6 18/32/6 22/34/6
f 24/35/2 21/33/2 22/34/2
f 27/36/5 26/37/5 25/38/5
f 31/39/2 28/40/2 27/36/2
f 29/41/3 32/42/3 31/39/3
f 25/43/6 30/44/6 29/41/6
f 25/45/1 31/39/1 27/46/1
f 30/44/4 28/47/4 32/42/4
f 34/48/3 35/49/3 33/50/3
f 36/51/6 39/52/6 35/49/6
f 40/53/5 37/54/5 39/52/5
f 38/55/2 33/56/2 37/54/2
f 39/52/4 33/57/4 35/58/4
f 36/59/1 38/55/1 40/53/1
f 42/60/3 43/61/3 41/62/3
f 44/63/6 47/64/6 43/61/6
f 48/65/5 45/66/5 47/64/5
f 46/67/2 41/68/2 45/66/2
f 47/64/4 41/69/4 43/70/4
f 44/71/1 46/67/1 48/65/1
f 50/72/3 51/73/3 49/74/3
f 52/75/6 55/76/6 51/73/6
f 56/77/5 53/78/5 55/76/5
f 54/79/2 49/80/2 53/78/2
f 55/76/4 49/81/4 51/82/4
f 52/83/1 54/79/1 56/77/1
f 58/84/3 59/85/3 57/86/3
f 60/87/6 63/88/6 59/85/6
f 64/89/5 61/90/5 63/88/5
f 62/91/2 57/92/2 61/90/2
f 63/88/4 57/93/4 59/94/4
f 60/95/1 62/91/1 64/89/1
f 66/96/3 67/97/3 65/98/3
f 68/99/6 71/100/6 67/97/6
f 72/101/5 69/102/5 71/100/5
f 70/103/2 65/104/2 69/102/2
f 71/100/4 65/105/4 67/106/4
f 68/107/1 70/103/1 72/101/1
f 74/108/3 75/109/3 73/110/3
f 76/111/6 79/112/6 75/109/6
f 80/113/5 77/114/5 79/112/5
f 78/115/2 73/116/2 77/114/2
f 79/112/4 73/117/4 75/118/4
f 76/119/1 78/115/1 80/113/1
f 82/120/3 83/121/3 81/122/3
f 84/123/6 87/124/6 83/121/6
f 88/125/5 85/126/5 87/124/5
f 86/127/2 81/128/2 85/126/2
f 87/124/4 81/129/4 83/130/4
f 84/131/1 86/127/1 88/125/1
f 90/132/3 91/133/3 89/134/3
f 92/135/6 95/136/6 91/133/6
f 96/137/5 93/138/5 95/136/5
f 94/139/2 89/140/2 93/138/2
f 95/136/4 89/141/4 91/142/4
f 92/143/1 94/139/1 96/137/1
f 5/1/1 7/144/1 3/2/1
f 3/2/2 7/145/2 8/4/2
f 7/6/3 5/12/3 6/7/3
f 2/9/4 4/5/4 8/10/4
f 1/3/5 3/2/5 4/5/5
f 5/12/6 1/3/6 2/9/6
f 10/13/3 12/16/3 11/14/3
f 12/16/6 16/18/6 15/17/6
f 16/18/5 14/20/5 13/19/5
f 14/20/2 10/146/2 9/21/2
f 15/17/4 13/19/4 9/22/4
f 12/24/1 10/147/1 14/20/1
f 17/25/2 21/148/2 23/26/2
f 22/28/2 18/32/2 20/29/2
f 19/27/2 23/149/2 24/31/2
f 18/32/2 17/25/2 19/27/2
f 21/33/6 17/25/6 18/32/6
f 24/35/2 23/150/2 21/33/2
f 27/36/5 28/40/5 26/37/5
f 31/39/2 32/42/2 28/40/2
f 29/41/3 30/44/3 32/42/3
f 25/43/6 26/151/6 30/44/6
f 25/45/1 29/41/1 31/39/1
f 30/44/4 26/152/4 28/47/4
f 34/48/3 36/51/3 35/49/3
f 36/51/6 40/53/6 39/52/6
f 40/53/5 38/55/5 37/54/5
f 38/55/2 34/153/2 33/56/2
f 39/52/4 37/54/4 33/57/4
f 36/59/1 34/154/1 38/55/1
f 42/60/3 44/63/3 43/61/3
f 44/63/6 48/65/6 47/64/6
f 48/65/5 46/67/5 45/66/5
f 46/67/2 42/155/2 41/68/2
f 47/64/4 45/66/4 41/69/4
f 44/71/1 42/156/1 46/67/1
f 50/72/3 52/75/3 51/73/3
f 52/75/6 56/77/6 55/76/6
f 56/77/5 54/79/5 53/78/5
f 54/79/2 50/157/2 49/80/2
f 55/76/4 53/78/4 49/81/4
f 52/83/1 50/158/1 54/79/1
f 58/84/3 60/87/3 59/85/3
f 60/87/6 64/89/6 63/88/6
f 64/89/5 62/91/5 61/90/5
f 62/91/2 58/159/2 57/92/2
f 63/88/4 61/90/4 57/93/4
f 60/95/1 58/160/1 62/91/1
f 66/96/3 68/99/3 67/97/3
f 68/99/6 72/101/6 71/100/6
f 72/101/5 70/103/5 69/102/5
f 70/103/2 66/161/2 65/104/2
f 71/100/4 69/102/4 65/105/4
f 68/107/1 66/162/1 70/103/1
f 74/108/3 76/111/3 75/109/3
f 76/111/6 80/113/6 79/112/6
f 80/113/5 78/115/5 77/114/5
f 78/115/2 74/163/2 73/116/2
f 79/112/4 77/114/4 73/117/4
f 76/119/1 74/164/1 78/115/1
f 82/120/3 84/123/3 83/121/3
f 84/123/6 88/125/6 87/124/6
f 88/125/5 86/127/5 85/126/5
f 86/127/2 82/165/2 81/128/2
f 87/124/4 85/126/4 81/129/4
f 84/131/1 82/166/1 86/127/1
f 90/132/3 92/135/3 91/133/3
f 92/135/6 96/137/6 95/136/6
f 96/137/5 94/139/5 93/138/5
f 94/139/2 90/167/2 89/140/2
f 95/136/4 93/138/4 89/141/4
f 92/143/1 90/168/1 94/139/1
