# Blender v2.92.0 OBJ File: 'SteveBlank.blend'
# www.blender.org
o Cube
v 1.041178 -0.121411 -0.250000
v 1.041178 0.121411 -0.250000
v 1.041178 0.121411 0.250000
v -1.041178 -0.121411 -0.250000
v -1.041178 0.121411 -0.250000
v -1.041178 -0.121411 0.250000
v -1.041178 0.121411 0.250000
v 1.041178 -0.121411 0.250000
v -1.041178 0.121411 4.910609
v 1.041178 0.121411 4.910609
v 1.041178 -0.121411 4.910609
v -1.041178 -0.121411 4.910609
v 1.041178 -0.121411 8.889567
v -1.041178 -0.121411 8.889567
v -1.041178 0.121411 8.889567
v 1.041178 0.121411 8.889567
v -2.248441 0.121411 4.910609
v -2.248441 -0.121411 4.910609
v -2.248441 0.121411 8.889567
v -2.248441 -0.121411 8.889567
v 2.265187 -0.121411 4.910609
v 2.265187 0.121411 4.910609
v 2.265187 -0.121411 8.889567
v 2.265187 0.121411 8.889567
v -1.041178 0.121411 10.991104
v 1.041178 0.121411 10.991104
v 1.041178 -0.121411 10.991104
v -1.041178 -0.121411 10.991104
v -1.041178 1.365889 -0.250000
v -1.041178 1.365889 0.250000
v 1.041178 1.365889 -0.250000
v 1.041178 1.365889 0.250000
v -1.041178 1.365889 4.910609
v 1.041178 1.365889 4.910609
v -1.041178 1.365889 8.889567
v 1.041178 1.365889 8.889567
v -2.248441 1.365889 8.889567
v -2.248441 1.365889 4.910609
v 2.265187 1.365889 4.910609
v 2.265187 1.365889 8.889567
v -1.041178 1.365889 10.991104
v 1.041178 1.365889 10.991104
v 1.041178 1.123068 10.991104
v -1.041178 1.123068 10.991104
v -1.041178 1.541723 8.889567
v 1.041178 1.541723 8.889567
v -1.041178 1.541723 10.991104
v 1.041178 1.541723 10.991104
v 1.041178 -0.311913 8.889567
v -1.041178 -0.311913 8.889567
v 1.041178 -0.311913 10.991104
v -1.041178 -0.311913 10.991104
vt 0.875000 0.500000
vt 0.625000 0.500000
vt 0.625000 0.750000
vt 0.375000 0.750000
vt 0.375000 1.000000
vt 0.625000 0.000000
vt 0.375000 0.000000
vt 0.375000 0.250000
vt 0.375000 0.750000
vt 0.375000 0.750000
vt 0.375000 0.750000
vt 0.375000 0.500000
vt 0.625000 0.250000
vt 0.625000 1.000000
vt 0.375000 1.000000
vt 0.375000 1.000000
vt 0.625000 1.000000
vt 0.625000 0.750000
vt 0.625000 1.000000
vt 0.625000 0.750000
vt 0.625000 0.750000
vt 0.375000 1.000000
vt 0.375000 0.750000
vt 0.625000 0.750000
vt 0.625000 0.750000
vt 0.375000 0.750000
vt 0.625000 1.000000
vt 0.375000 1.000000
vt 0.375000 1.000000
vt 0.375000 1.000000
vt 0.625000 1.000000
vt 0.625000 0.750000
vt 0.625000 1.000000
vt 0.625000 1.000000
vt 0.375000 0.750000
vt 0.375000 0.750000
vt 0.000000 0.000000
vt 0.000000 0.000000
vt 0.000000 0.000000
vt 0.375000 1.000000
vt 0.625000 1.000000
vt 0.375000 0.500000
vt 0.125000 0.500000
vt 0.125000 0.750000
vt 0.375000 0.750000
vt 0.375000 1.000000
vt 0.375000 0.750000
vt 0.375000 1.000000
vt 0.375000 1.000000
vt 0.375000 0.750000
vt 0.375000 1.000000
vt 0.375000 1.000000
vt 0.375000 0.750000
vt 0.000000 0.000000
vt 0.000000 0.000000
vt 0.000000 0.000000
vt 0.000000 0.000000
vt 0.375000 0.750000
vt 0.375000 0.750000
vt 0.375000 1.000000
vt 0.625000 0.750000
vt 0.625000 1.000000
vt 0.625000 0.750000
vt 0.875000 0.750000
vt 0.000000 0.000000
vn 0.0000 -1.0000 0.0000
vn 0.0000 0.0000 1.0000
vn -1.0000 0.0000 0.0000
vn 1.0000 0.0000 0.0000
vn 0.0000 0.0000 -1.0000
vn 0.0000 1.0000 0.0000
s off
f 4/1/1 1/2/1 8/3/1
f 8/3/2 3/4/2 7/5/2
f 6/6/3 7/7/3 5/8/3
f 22/9/3 24/10/3 40/11/3
f 1/2/4 2/12/4 3/4/4
f 4/13/5 5/8/5 2/12/5
f 12/14/2 9/15/2 17/16/2
f 6/17/4 7/5/4 9/15/4
f 8/3/6 6/17/6 12/14/6
f 3/4/3 8/3/3 11/18/3
f 11/18/6 12/14/6 14/19/6
f 11/18/6 13/20/6 23/21/6
f 9/15/4 7/5/4 30/22/4
f 16/23/3 13/20/3 27/24/3
f 27/24/4 43/25/4 42/26/4
f 18/27/4 17/16/4 19/28/4
f 14/19/6 12/14/6 18/27/6
f 19/28/4 17/16/4 38/29/4
f 15/30/5 14/19/5 20/31/5
f 22/9/3 21/32/3 23/21/3
f 13/20/5 16/23/5 24/10/5
f 27/24/5 28/33/5 44/34/5
f 10/35/2 11/18/2 21/32/2
f 7/5/2 3/4/2 32/36/2
f 3/37/4 2/38/4 31/39/4
f 14/19/4 15/30/4 25/40/4
f 14/19/4 28/33/4 52/41/4
f 31/42/6 29/43/6 30/44/6
f 30/22/1 32/36/1 34/45/1
f 33/46/1 34/45/1 36/47/1
f 33/46/1 35/48/1 37/49/1
f 36/47/1 34/45/1 39/50/1
f 41/51/5 42/26/5 43/25/5
f 41/51/4 35/48/4 45/52/4
f 25/40/4 41/51/4 44/34/4
f 17/16/2 9/15/2 33/46/2
f 16/23/3 26/53/3 42/26/3
f 3/4/3 10/35/3 34/45/3
f 5/54/3 7/55/3 30/56/3
f 2/38/5 5/54/5 29/57/5
f 24/10/5 16/23/5 36/47/5
f 15/30/5 19/28/5 37/49/5
f 25/40/4 15/30/4 35/48/4
f 10/35/2 22/9/2 39/50/2
f 45/52/1 46/58/1 48/59/1
f 36/47/3 42/26/3 48/59/3
f 35/48/2 36/47/2 46/58/2
f 42/26/5 41/51/5 47/60/5
f 49/61/6 50/62/6 52/41/6
f 27/24/3 13/20/3 49/61/3
f 28/33/5 27/24/5 51/63/5
f 13/20/2 14/19/2 50/62/2
f 7/55/1 5/54/1 2/38/1
f 4/1/1 8/3/1 6/64/1
f 8/3/2 7/5/2 6/17/2
f 6/6/3 5/8/3 4/13/3
f 22/9/3 40/11/3 39/50/3
f 1/2/4 3/4/4 8/3/4
f 4/13/5 2/12/5 1/2/5
f 12/14/2 17/16/2 18/27/2
f 6/17/4 9/15/4 12/14/4
f 8/3/6 12/14/6 11/18/6
f 3/4/3 11/18/3 10/35/3
f 11/18/6 14/19/6 13/20/6
f 11/18/6 23/21/6 21/32/6
f 9/15/4 30/22/4 33/46/4
f 16/23/3 27/24/3 26/53/3
f 27/24/3 42/26/3 26/53/3
f 18/27/4 19/28/4 20/31/4
f 14/19/6 18/27/6 20/31/6
f 19/28/4 38/29/4 37/49/4
f 15/30/5 20/31/5 19/28/5
f 22/9/3 23/21/3 24/10/3
f 13/20/5 24/10/5 23/21/5
f 27/24/5 44/34/5 43/25/5
f 10/35/2 21/32/2 22/9/2
f 7/5/2 32/36/2 30/22/2
f 3/37/4 31/39/4 32/65/4
f 14/19/4 25/40/4 28/33/4
f 14/19/4 52/41/4 50/62/4
f 31/42/6 30/44/6 32/36/6
f 30/22/1 34/45/1 33/46/1
f 33/46/1 36/47/1 35/48/1
f 33/46/1 37/49/1 38/29/1
f 36/47/1 39/50/1 40/11/1
f 41/51/5 43/25/5 44/34/5
f 41/51/4 45/52/4 47/60/4
f 25/40/2 44/34/2 28/33/2
f 17/16/2 33/46/2 38/29/2
f 16/23/3 42/26/3 36/47/3
f 3/4/3 34/45/3 32/36/3
f 5/54/3 30/56/3 29/57/3
f 2/38/5 29/57/5 31/39/5
f 24/10/5 36/47/5 40/11/5
f 15/30/5 37/49/5 35/48/5
f 25/40/4 35/48/4 41/51/4
f 10/35/2 39/50/2 34/45/2
f 45/52/1 48/59/1 47/60/1
f 36/47/3 48/59/3 46/58/3
f 35/48/2 46/58/2 45/52/2
f 42/26/5 47/60/5 48/59/5
f 49/61/6 52/41/6 51/63/6
f 27/24/3 49/61/3 51/63/3
f 28/33/5 51/63/5 52/41/5
f 13/20/2 50/62/2 49/61/2
f 7/55/1 2/38/1 3/37/1
